<svg width="320" height="200" viewBox="0 0 320 200" fill="none" xmlns="http://www.w3.org/2000/svg">
  <defs>
    <linearGradient id="gs-panel" x1="57" y1="38" x2="296" y2="179" gradientUnits="userSpaceOnUse"><stop stop-color="#FFFFFF"/><stop offset="1" stop-color="#F6F9FF"/></linearGradient>
    <linearGradient id="gs-start" x1="77" y1="87" x2="112" y2="122" gradientUnits="userSpaceOnUse"><stop stop-color="#7EACFF"/><stop offset="1" stop-color="#4D70E6"/></linearGradient>
    <filter id="gs-back" x="1" y="-3" width="283" height="200" filterUnits="userSpaceOnUse" color-interpolation-filters="sRGB"><feDropShadow dx="0" dy="12" stdDeviation="12" flood-color="#48638A" flood-opacity="0.12"/></filter>
    <filter id="gs-front" x="28" y="11" width="291" height="189" filterUnits="userSpaceOnUse" color-interpolation-filters="sRGB"><feDropShadow dx="0" dy="14" stdDeviation="12" flood-color="#35517A" flood-opacity="0.18"/></filter>
    <filter id="gs-glow" x="65" y="74" width="62" height="62" filterUnits="userSpaceOnUse" color-interpolation-filters="sRGB"><feDropShadow dx="0" dy="5" stdDeviation="7" flood-color="#547BEA" flood-opacity="0.3"/></filter>
  </defs>
  <g filter="url(#gs-back)" transform="rotate(-4.5 139 97)">
    <rect x="24" y="20" width="235" height="150" rx="20" fill="#EAF2FF" stroke="#C8D7EA"/>
    <path d="M24 40C24 28.954 32.954 20 44 20H239C250.046 20 259 28.954 259 40V53H24V40Z" fill="#FAFCFF" fill-opacity="0.86"/>
    <circle cx="43" cy="36" r="3" fill="#AFC3E3"/><circle cx="53" cy="36" r="3" fill="#CFDBEB"/><circle cx="63" cy="36" r="3" fill="#DCE5F0"/>
    <circle cx="74" cy="91" r="9" fill="#FFFFFF" stroke="#9AB5E6" stroke-width="2"/><path d="M84 91H210" stroke="#D3DEED" stroke-width="2" stroke-linecap="round"/><circle cx="124" cy="91" r="5" fill="#B4C7E9"/><circle cx="168" cy="91" r="5" fill="#9CB5E6"/><circle cx="211" cy="91" r="7" fill="#7197E8"/>
  </g>
  <g filter="url(#gs-front)" transform="rotate(1.2 180 111)">
    <rect x="51" y="38" width="249" height="145" rx="20" fill="url(#gs-panel)" stroke="#C8D6E9"/>
    <path d="M51 58C51 46.954 59.954 38 71 38H280C291.046 38 300 46.954 300 58V69H51V58Z" fill="#FBFCFF"/>
    <circle cx="70" cy="53" r="3" fill="#9EB8E7"/><circle cx="80" cy="53" r="3" fill="#D1DDEC"/><rect x="97" y="49" width="54" height="8" rx="4" fill="#DDE6F1"/><rect x="264" y="48" width="20" height="10" rx="5" fill="#E8F0FF"/>
    <path d="M110 105C136 105 143 84 164 84H184M110 105C140 105 144 105 169 105H184M110 105C136 105 143 137 164 137H184" stroke="#C8D7EC" stroke-width="2" stroke-linecap="round"/>
    <g filter="url(#gs-glow)"><circle cx="96" cy="105" r="17" fill="url(#gs-start)"/><circle cx="96" cy="105" r="7" stroke="white" stroke-width="2"/><circle cx="96" cy="105" r="2.5" fill="white"/></g>
    <rect x="184" y="72" width="84" height="25" rx="9" fill="#F3F7FD" stroke="#CCD9EC"/><circle cx="198" cy="84.5" r="4.5" fill="#7499E9"/><rect x="209" y="80.5" width="45" height="7" rx="3.5" fill="#C6D5EA"/>
    <rect x="184" y="94" width="92" height="25" rx="9" fill="#EDF3FF" stroke="#BFD0EC"/><circle cx="198" cy="106.5" r="4.5" fill="#5D86E9"/><rect x="209" y="102.5" width="53" height="7" rx="3.5" fill="#AFC5EA"/>
    <rect x="184" y="126" width="78" height="25" rx="9" fill="#F5F8FD" stroke="#D3DEED"/><circle cx="198" cy="138.5" r="4.5" fill="#9EB6E3"/><rect x="209" y="134.5" width="39" height="7" rx="3.5" fill="#D1DCEB"/>
  </g>
  <g transform="rotate(4 258 41)"><rect x="230" y="22" width="60" height="39" rx="11" fill="#FFFFFF" stroke="#CBD9EB"/><circle cx="250" cy="41" r="10" fill="#EAF1FF"/><path d="M250 34.5L254 41L250 47.5L246 41L250 34.5Z" fill="#638AE9"/><circle cx="250" cy="41" r="2.2" fill="white"/><rect x="267" y="35" width="13" height="5" rx="2.5" fill="#B6C9EA"/><rect x="267" y="44" width="10" height="4" rx="2" fill="#E0E7F1"/></g>
</svg>
